<svg xmlns="http://www.w3.org/2000/svg" xmlns:xlink="http://www.w3.org/1999/xlink" width="20" height="20" viewBox="0 0 20 20">
  <defs>
    <path id="a" d="M2.081 19.686a1.258 1.258 0 0 1-1.765-.1A1.232 1.232 0 0 1 0 18.76V3.097C0 1.387 1.4 0 3.125 0h13.75C18.601 0 20 1.386 20 3.097v10.218c0 1.71-1.4 3.097-3.125 3.097H5.792l-3.71 3.274zm2.881-5.132H16.46a1.55 1.55 0 0 0 1.553-1.548v-9.6a1.55 1.55 0 0 0-1.553-1.548H3.41a1.55 1.55 0 0 0-1.553 1.548v13.935l3.104-2.787zM9.46 9.34c0 .576-.183 1.032-.549 1.37-.366.339-.83.508-1.39.508-.659 0-1.202-.226-1.629-.676-.427-.451-.64-1.115-.64-1.991 0-2.986 2.569-4.117 2.837-4.217l.459.694c-1.135.583-1.516 1.678-1.516 2.56.098-.026.277-.103.72-.103.488 0 1.037.227 1.306.578.268.35.402.776.402 1.277zm5.264 0c0 .576-.183 1.032-.548 1.37-.366.339-.83.508-1.391.508-.659 0-1.201-.226-1.628-.676-.427-.451-.64-1.115-.64-1.991 0-2.986 2.568-4.117 2.837-4.217l.458.694c-1.135.583-1.515 1.678-1.515 2.56.097-.026.276-.103.72-.103.487 0 1.037.227 1.305.578.268.35.402.776.402 1.277z"/>
  </defs>
  <use xlink:href="#a"/>
</svg>
